HIERARCHY
ROOT Hips
{
  OFFSET 196.326 95.9168 97.7182
  CHANNELS 6 Xposition Yposition Zposition Zrotation Xrotation Yrotation
  JOINT LeftUpLeg
  {
    OFFSET 8.64259 1.95398 -2.38835
    CHANNELS 3 Zrotation Xrotation Yrotation
    JOINT LeftLeg
    {
      OFFSET 43.7702 0 0
      CHANNELS 3 Zrotation Xrotation Yrotation
      JOINT LeftFoot
      {
        OFFSET 40.6238 0 0
        CHANNELS 3 Zrotation Xrotation Yrotation
        JOINT LeftToeBase
        {
          OFFSET 12.7242 0 0
          CHANNELS 3 Zrotation Xrotation Yrotation
          End Site
          {
            OFFSET 0 0 0
          }
        }
      }
    }
  }
  JOINT RightUpLeg
  {
    OFFSET -8.2249 1.95398 -2.59336
    CHANNELS 3 Zrotation Xrotation Yrotation
    JOINT RightLeg
    {
      OFFSET 43.5653 0 0
      CHANNELS 3 Zrotation Xrotation Yrotation
      JOINT RightFoot
      {
        OFFSET 40.6238 0 0
        CHANNELS 3 Zrotation Xrotation Yrotation
        JOINT RightToeBase
        {
          OFFSET 12.7242 0 0
          CHANNELS 3 Zrotation Xrotation Yrotation
          End Site
          {
            OFFSET 0 0 0
          }
        }
      }
    }
  }
  JOINT Spine
  {
    OFFSET 0.165834 0.87714 6.61349
    CHANNELS 3 Zrotation Xrotation Yrotation
    JOINT Spine1
    {
      OFFSET 7.38963 1.71661e-005 0
      CHANNELS 3 Zrotation Xrotation Yrotation
      JOINT Spine2
      {
        OFFSET 11.9445 1.14441e-005 0
        CHANNELS 3 Zrotation Xrotation Yrotation
        JOINT Spine3
        {
          OFFSET 14.7254 4.19617e-005 0
          CHANNELS 3 Zrotation Xrotation Yrotation
          JOINT Spine4
          {
            OFFSET 10.9679 0 0
            CHANNELS 3 Zrotation Xrotation Yrotation
            JOINT RightShoulder
            {
              OFFSET 2.46616 -1.6653 3.69651
              CHANNELS 3 Zrotation Xrotation Yrotation
              JOINT RightArm
              {
                OFFSET 13.0012 0 0
                CHANNELS 3 Zrotation Xrotation Yrotation
                JOINT RightForeArm
                {
                  OFFSET 28.7848 1.52588e-005 0
                  CHANNELS 3 Zrotation Xrotation Yrotation
                  JOINT RightHand
                  {
                    OFFSET 26.5688 1.52588e-005 0
                    CHANNELS 3 Zrotation Xrotation Yrotation
                    End Site
                    {
                      OFFSET 0 0 0
                    }
                  }
                }
              }
            }
            JOINT LeftShoulder
            {
              OFFSET 2.38034 -1.29275 -3.75231
              CHANNELS 3 Zrotation Xrotation Yrotation
              JOINT LeftArm
              {
                OFFSET 16.3182 6.10351e-005 0
                CHANNELS 3 Zrotation Xrotation Yrotation
                JOINT LeftForeArm
                {
                  OFFSET 27.0901 0 0
                  CHANNELS 3 Zrotation Xrotation Yrotation
                  JOINT LeftHand
                  {
                    OFFSET 24.5451 1.52588e-005 0
                    CHANNELS 3 Zrotation Xrotation Yrotation
                    End Site
                    {
                      OFFSET 0 0 0
                    }
                  }
                }
              }
            }
            JOINT Neck
            {
              OFFSET 5.0226 -0.0266342 0
              CHANNELS 3 Zrotation Xrotation Yrotation
              JOINT Head
              {
                OFFSET 6.69363 2.86102e-005 0
                CHANNELS 3 Zrotation Xrotation Yrotation
                End Site
                {
                  OFFSET 0 0 0
                }
              }
            }
          }
        }
      }
    }
  }
}
MOTION
Frames:	15
Frame Time:	0.0416667
302.403 83.0917 174.276 -28.9456 14.788 81.2484 61.723 85.4523 -143.454 -3.95353 -41.0539 -5.79166 9.13337 -34.8558 -26.3323 42.1226 1.92186 -157.662 -6.66404 37.5279 -108.615 -63.8317 12.8676 31.2572 112.597 -12.8003 2.24186 35.0497 -24.5641 169.034 -3.76323 4.96432 -102.751 14.9435 -13.718 -23.7021 3.1381 -14.7203 -23.1154 -17.8438 -6.24694 -26.5118 2.16887 -6.24692 -26.5119 58.7072 70.752 -10.5111 44.1926 51.4974 170.954 -10.7381 -34.1712 -0.000458308 -21.5725 2.5042 -20.1866 8.27253 -41.5435 -147.718 -1.14214 8.92779 -66.9694 -18.3112 49.6411 -2.88226 84.0626 -4.369 -8.92319 -93.2279 -43.197 -165.436 86.597 69.8965 115.862 
302.657 83.0234 174.44 -29.6133 14.9385 81.5072 55.574 85.2087 -137.152 -4.32578 -41.8692 -6.38518 9.53934 -35.3576 -25.262 40.01 3.11924 -158.553 -6.8759 36.8615 -108.747 -63.711 12.1331 31.3216 113.899 -13.2358 2.3867 32.2753 -47.0195 164.51 -3.74791 4.94928 -102.838 14.9525 -13.7309 -23.877 3.14407 -14.7403 -23.2904 -17.8115 -6.21235 -26.6797 2.20112 -6.21236 -26.6797 57.834 70.7324 -9.28247 46.6714 53.7553 168.66 -10.5447 -31.2058 -0.000443333 -22.3026 2.97819 -21.9438 7.57784 -40.4864 -147.65 -2.02133 9.06175 -67.0812 -17.9289 50.7808 -3.05682 83.5443 -4.01211 -8.58084 -93.0607 -43.2046 -165.235 88.3957 67.2197 113.402 
303.368 82.7611 174.898 -31.5659 15.336 82.2698 40.6642 84.1367 -121.764 -5.78108 -43.7951 -8.22055 11.0613 -36.7162 -22.2285 35.0308 6.1004 -160.563 -7.51627 34.786 -109.205 -63.7792 10.1549 31.6582 117.39 -14.3156 2.89776 -13.6639 -74.8843 110.735 -3.69134 4.90349 -103.083 14.9864 -13.741 -24.3682 3.16914 -14.7702 -23.783 -17.7108 -6.09042 -27.1438 2.30191 -6.0904 -27.1438 55.4961 70.6368 -5.96528 55.5393 60.1186 160.56 -9.6213 -22.003 -0.000408976 -24.1187 4.48054 -27.217 5.57336 -37.5164 -147.464 -4.57263 9.47819 -67.2787 -16.5469 53.8806 -3.8186 82.0191 -3.17011 -7.7658 -92.6076 -43.6027 -164.426 90.3971 61.1495 109.819 
304.452 82.339 175.607 -34.8177 15.8589 83.5452 26.4097 81.8083 -106.63 -8.39939 -46.0165 -11.5064 14.2055 -38.4168 -17.2756 29.941 9.38585 -162.766 -8.52539 31.2151 -110.086 -64.4457 7.46334 32.4262 122.116 -15.6172 3.82241 -67.2881 -61.7163 43.7565 -3.55964 4.82486 -103.455 15.0628 -13.6684 -25.1243 3.23066 -14.728 -24.545 -17.5268 -5.81907 -27.8339 2.48584 -5.81905 -27.8339 52.2894 70.3732 -1.28652 79.5679 69.241 138.48 -6.82997 -4.59988 -0.000380413 -25.6284 7.08707 -36.3751 2.37424 -32.9826 -147.178 -8.68059 10.2132 -67.2254 -13.2246 58.2716 -6.08291 79.4563 -2.33017 -6.95267 -92.0821 -44.5785 -162.782 90.9191 54.9751 107.462 
305.819 81.7891 176.527 -39.3995 16.3038 85.332 17.0336 78.0779 -95.8473 -12.3588 -47.8955 -16.4125 19.2642 -39.889 -10.6873 27.3293 11.276 -165.043 -9.78386 26.1386 -111.497 -65.9482 4.52658 33.6854 127.304 -16.7469 5.13864 -67.1185 -46.0437 30.5608 -3.30945 4.71591 -103.917 15.1944 -13.4117 -26.0852 3.34111 -14.5099 -25.5205 -17.251 -5.31767 -28.6669 2.76167 -5.31768 -28.6669 48.8581 69.8972 3.94191 143.338 71.7853 78.8531 -0.653334 26.1038 -0.000422259 -22.99 8.99896 -49.5275 -1.91798 -27.2698 -146.805 -14.1866 11.2602 -66.4932 -5.79457 62.9925 -11.9753 75.6547 -1.97635 -6.69749 -91.7024 -45.7613 -160.417 91.1073 50.1596 105.545 
307.39 81.1445 177.631 -45.0999 16.3799 87.5027 11.8797 73.0786 -88.6625 -17.8402 -49.1455 -22.762 26.0043 -40.6769 -3.14264 29.1085 10.2633 -167.72 -11.1116 19.8509 -113.429 -68.252 1.64087 35.3071 132.488 -17.4549 6.73245 -63.7588 -36.1073 24.0748 -2.91999 4.59612 -104.412 15.3637 -12.9015 -27.1491 3.48388 -14.0421 -26.61 -16.9136 -4.54703 -29.53 3.09901 -4.54703 -29.53 45.6917 69.2822 8.96769 -166.587 52.7881 36.5925 9.93956 75.9931 0.0224006 -12.3486 4.06319 -60.3869 -7.11807 -20.8557 -146.346 -20.7589 12.4542 -64.7976 8.96684 66.3516 -24.7181 70.2469 -2.39687 -7.51272 -91.5285 -46.7614 -157.574 91.7103 46.555 103.454 
309.129 80.4449 178.91 -51.0386 15.8257 89.6866 9.11726 66.4539 -82.6397 -27.9314 -48.6069 -31.3239 34.5753 -40.7735 3.88822 37.6781 4.04507 -170.536 -12.2602 13.2327 -115.674 -71.1717 -1.06661 36.9503 137.415 -17.6393 8.41697 -61.5424 -29.8374 19.6464 -2.50154 4.52875 -104.974 15.4185 -12.3558 -28.368 3.50808 -13.5446 -27.8563 -16.6651 -3.70339 -30.5334 3.34752 -3.70337 -30.5334 41.4986 68.4953 15.3774 -138.256 16.5404 24.6198 -146.876 45.2621 179.976 -3.02861 -3.99493 -55.225 -14.9061 -12.5112 -145.968 -29.2521 14.8387 -59.7748 31.0405 66.0994 -44.8338 62.8544 -3.41355 -9.55947 -92.2036 -48.5082 -154.877 92.5883 43.9079 101.029 
311.726 79.6446 180.364 -49.2164 15.1641 90.7099 -4.67992 64.6797 -68.1115 -42.744 -42.2962 -51.1415 49.4937 -28.949 12.5282 59.9047 -12.4124 -168.395 -12.6955 8.65656 -113.616 -75.5624 -5.04018 35.1336 142.307 -17.4652 9.68413 -59.536 -25.9156 16.9532 -3.03169 4.96364 -105.463 14.3744 -13.5447 -29.3044 2.46893 -14.7754 -28.7468 -17.6744 -4.56001 -31.7226 2.33828 -4.56001 -31.7226 36.8878 68.1422 21.1268 -115.27 -15.2389 26.638 -120.822 2.1666 179.973 -3.90901 -4.47445 -45.2551 -23.5027 -4.32169 -145.523 -37.8102 16.657 -53.2969 49.5231 60.3702 -61.6237 53.8617 -4.62401 -12.8493 -93.371 -49.8562 -152.226 93.7437 41.4971 98.7956 
304.335 79.9611 181.392 -139.245 6.37717 96.5573 112.66 24.5516 -105.873 52.5617 -28.6316 70.725 134.095 -22.4738 178.874 107.437 -32.4473 -146.021 -59.5407 -39.8365 -173.043 -72.9885 1.97013 82.333 141.695 -14.7399 15.4527 -65.0822 -15.4043 6.05233 8.40372 -0.0519789 -103.763 27.3593 7.82911 -31.2744 15.3356 6.51433 -31.5453 -4.89851 16.5283 -27.9668 15.1141 16.5283 -27.9667 32.0697 68.4772 25.5277 -96.2805 -31.3093 32.5456 -106.577 -48.2928 179.955 -7.04775 -2.37222 -40.0035 -31.3726 2.33635 -145.121 -44.8651 16.8634 -47.4259 58.8799 51.6974 -69.9867 44.5834 -5.47242 -16.7224 -94.7218 -50.0879 -149.629 95.195 38.9842 96.9625 
305.59 79.242 182.203 -148.298 4.55987 100.041 127.299 23.6613 -105.429 -131.562 33.0149 107.699 44.9015 9.36407 6.84204 163.001 -22.408 -110.24 -125.871 17.7544 -165.427 84.3583 58.6093 -157.267 94.7819 51.1394 -36.1932 -66.2353 -5.30263 -1.52776 8.80769 1.13621 -103.917 25.1354 8.92228 -31.4169 13.1136 7.6014 -31.7291 -7.19122 17.619 -27.8019 12.8214 17.619 -27.8019 60.5492 57.912 13.1755 2.49042 -36.1456 89.329 -7.78376 -29.1734 -71.2082 -16.8861 4.2343 -38.6396 -43.6157 14.7221 -136.012 -53.9823 15.882 -41.0519 61.3646 42.4818 -71.9829 36.5064 -5.84054 -20.5555 -88.8418 -45.5906 -132.576 102.208 34.4992 86.2151 
307.068 78.7121 183.082 -156.073 1.02269 103.183 141.242 24.6337 -104.797 -133.158 35.7985 90.5778 55.1751 13.251 21.7314 173.52 -12.0189 -103.231 122.523 19.5608 18.137 -175.966 -12.6875 -73.7746 46.8348 -66.5153 -95.5336 -49.7508 -23.2793 18.2231 9.74483 0.504447 -103.988 26.7049 10.4061 -32.3563 14.6689 9.04921 -32.7209 -5.61534 19.2975 -28.3212 14.3973 19.2975 -28.3212 52.6184 60.7147 17.7441 -5.34489 -39.3138 81.268 -4.37022 -30.7343 -71.3101 -13.6943 2.82293 -35.3817 -54.4791 20.4821 -135.928 -59.9764 14.8908 -31.7499 63.1657 35.818 -75.1035 30.2089 -5.60071 -23.0695 -92.0309 -46.6554 -132.14 102.544 32.095 86.4109 
308.65 78.3014 184.009 -162.233 -3.51831 105.875 153.65 26.8634 -104.546 -117.245 38.1987 73.4931 62.0524 20.3214 17.134 170.835 -8.59611 -102.389 123.364 -6.22233 33.7834 -129.281 -18.6446 -56.6449 135.719 -49.2521 -11.3847 -52.0173 -18.4865 12.5641 10.5865 0.127422 -104.189 27.7455 11.7092 -33.4396 15.6914 10.3115 -33.8483 -4.53621 20.8383 -29.0389 15.4765 20.8383 -29.0388 45.0406 62.9837 22.1999 -7.67176 -41.3862 76.6374 -0.768061 -30.304 -71.599 -11.849 2.08409 -32.1284 -64.8691 25.5313 -135.263 -64.6621 13.0832 -23.7452 63.2905 30.8343 -76.7989 25.736 -5.28399 -24.9104 -94.9987 -47.1472 -131.184 103.161 29.446 86.3428 
310.186 77.9751 184.905 -167.205 -8.366 108.101 166.115 29.6832 -105.913 -97.2671 33.1788 54.7744 71.6305 28.7141 4.41464 161.231 -8.65975 -103.945 133.308 -11.5302 43.542 -125.009 -17.3228 -46.7497 140.23 -47.8569 -8.02982 -48.5994 -17.4951 12.6597 11.352 -0.194223 -104.454 28.6602 12.8377 -34.6069 16.5845 11.3968 -35.0515 -3.55529 22.231 -29.8954 16.4573 22.2309 -29.8953 34.9783 65.6451 27.8533 -11.2832 -44.1729 72.1727 1.93333 -32.261 -71.9136 -10.4245 1.49564 -29.12 -73.7217 29.4666 -134.916 -67.8834 10.9986 -17.6114 62.7685 27.3206 -77.81 22.6443 -4.98846 -26.195 -98.1334 -47.5239 -130.68 103.602 26.7109 86.6536 
311.534 77.6879 185.696 -171.504 -13.1427 109.953 -178.413 31.8343 -110.937 -80.916 21.3071 38.4672 83.6288 35.5089 -13.3579 148.595 -8.8884 -106.272 140.775 -11.9486 51.164 -123.601 -15.8606 -42.2443 143.343 -47.2955 -5.85324 -45.5244 -16.1748 12.2116 6.99789 -1.1043 -97.8469 18.1692 7.86903 -21.4575 6.53318 6.86535 -21.7567 -15.7057 14.0684 -18.2841 4.30699 14.0685 -18.2841 20.8474 68.7535 35.7365 -17.6921 -47.8165 66.8206 4.12929 -37.406 -72.1181 -9.26147 0.975587 -26.4362 -80.2106 32.2177 -135.212 -69.7779 9.13867 -13.8933 62.0367 24.9146 -78.4002 20.5161 -4.74363 -27.0661 -101.398 -47.7968 -130.693 103.803 23.8273 87.4081 
312.62 77.4713 186.314 -175.563 -17.7423 111.544 -154.378 29.0381 -122.871 -72.7089 7.7557 20.4872 91.9176 40.6815 -25.9093 138.861 -6.65782 -106.468 146.812 -11.265 57.0761 -122.46 -14.57 -39.3076 146.148 -46.6312 -4.05383 -42.3115 -14.7222 11.5511 -15.509 11.4728 -72.9223 10.7367 -21.4021 37.0065 -1.39345 -19.8781 37.7717 -22.0807 -31.1981 29.6585 -2.06803 -31.1981 29.6585 -0.365677 72.22 48.0489 -31.7242 -51.6351 56.5265 6.35901 -48.086 -72.1154 -8.00181 0.353444 -24.0006 -83.6897 33.7355 -136.471 -70.5448 7.89345 -12.9284 61.3107 23.3169 -78.724 19.0335 -4.54472 -27.6246 -104.789 -47.9553 -131.295 103.737 20.6922 88.6697 
